<?xml version="1.0" encoding="UTF-8" standalone="no"?>
<!DOCTYPE svg PUBLIC "-//W3C//DTD SVG 1.1//EN"
 "http://www.w3.org/Graphics/SVG/1.1/DTD/svg11.dtd">
<!-- Generated by graphviz version 8.1.0 (20230707.0739)
 -->
<!-- Title: G Pages: 1 -->
<svg width="132pt" height="238pt"
 viewBox="0.00 0.00 131.50 238.00" xmlns="http://www.w3.org/2000/svg" xmlns:xlink="http://www.w3.org/1999/xlink">
<g id="graph0" class="graph" transform="scale(1 1) rotate(0) translate(4 234)">
<title>G</title>
<polygon fill="white" stroke="none" points="-4,4 -4,-234 127.5,-234 127.5,4 -4,4"/>
<!-- 0 -->
<g id="node1" class="node">
<title>0</title>
<ellipse fill="lightgrey" stroke="black" cx="18" cy="-115" rx="18" ry="18"/>
<text text-anchor="middle" x="18" y="-109.58" font-family="Times New Roman,serif" font-size="14.00">0</text>
</g>
<!-- 1 -->
<g id="node2" class="node">
<title>1</title>
<ellipse fill="none" stroke="black" cx="101.5" cy="-208" rx="18" ry="18"/>
<ellipse fill="none" stroke="black" cx="101.5" cy="-208" rx="22" ry="22"/>
<text text-anchor="middle" x="101.5" y="-202.57" font-family="Times New Roman,serif" font-size="14.00">1</text>
</g>
<!-- 0&#45;&gt;1 -->
<g id="edge1" class="edge">
<title>0&#45;&gt;1</title>
<path fill="none" stroke="black" d="M30.68,-128.32C43.31,-142.74 63.72,-166.03 79.22,-183.72"/>
<polygon fill="black" stroke="black" points="77.16,-185.67 86.38,-190.89 82.42,-181.06 77.16,-185.67"/>
<text text-anchor="middle" x="57.75" y="-163.45" font-family="Times New Roman,serif" font-size="14.00">a</text>
</g>
<!-- 2 -->
<g id="node3" class="node">
<title>2</title>
<ellipse fill="none" stroke="black" cx="101.5" cy="-146" rx="18" ry="18"/>
<ellipse fill="none" stroke="black" cx="101.5" cy="-146" rx="22" ry="22"/>
<text text-anchor="middle" x="101.5" y="-140.57" font-family="Times New Roman,serif" font-size="14.00">2</text>
</g>
<!-- 0&#45;&gt;2 -->
<g id="edge2" class="edge">
<title>0&#45;&gt;2</title>
<path fill="none" stroke="black" d="M35.1,-121.12C45.15,-124.95 58.4,-129.98 70.34,-134.53"/>
<polygon fill="black" stroke="black" points="68.8,-138.07 79.39,-138.35 71.28,-131.52 68.8,-138.07"/>
<text text-anchor="middle" x="57.75" y="-132.45" font-family="Times New Roman,serif" font-size="14.00">b</text>
</g>
<!-- 3 -->
<g id="node4" class="node">
<title>3</title>
<ellipse fill="none" stroke="black" cx="101.5" cy="-84" rx="18" ry="18"/>
<ellipse fill="none" stroke="black" cx="101.5" cy="-84" rx="22" ry="22"/>
<text text-anchor="middle" x="101.5" y="-78.58" font-family="Times New Roman,serif" font-size="14.00">3</text>
</g>
<!-- 0&#45;&gt;3 -->
<g id="edge3" class="edge">
<title>0&#45;&gt;3</title>
<path fill="none" stroke="black" d="M35.1,-108.88C45.15,-105.05 58.4,-100.02 70.34,-95.47"/>
<polygon fill="black" stroke="black" points="71.28,-98.48 79.39,-91.65 68.8,-91.93 71.28,-98.48"/>
<text text-anchor="middle" x="57.75" y="-103.45" font-family="Times New Roman,serif" font-size="14.00">c</text>
</g>
<!-- 4 -->
<g id="node5" class="node">
<title>4</title>
<ellipse fill="none" stroke="black" cx="101.5" cy="-22" rx="18" ry="18"/>
<ellipse fill="none" stroke="black" cx="101.5" cy="-22" rx="22" ry="22"/>
<text text-anchor="middle" x="101.5" y="-16.57" font-family="Times New Roman,serif" font-size="14.00">4</text>
</g>
<!-- 0&#45;&gt;4 -->
<g id="edge4" class="edge">
<title>0&#45;&gt;4</title>
<path fill="none" stroke="black" d="M30.68,-101.68C43.31,-87.26 63.72,-63.97 79.22,-46.28"/>
<polygon fill="black" stroke="black" points="82.42,-48.94 86.38,-39.11 77.16,-44.33 82.42,-48.94"/>
<text text-anchor="middle" x="57.75" y="-76.45" font-family="Times New Roman,serif" font-size="14.00">d</text>
</g>
</g>
</svg>
