<?xml version="1.0" encoding="UTF-8" standalone="no"?>
<!DOCTYPE svg PUBLIC "-//W3C//DTD SVG 1.1//EN"
 "http://www.w3.org/Graphics/SVG/1.1/DTD/svg11.dtd">
<!-- Generated by graphviz version 8.1.0 (20230707.0739)
 -->
<!-- Title: G Pages: 1 -->
<svg width="138pt" height="104pt"
 viewBox="0.00 0.00 138.01 104.19" xmlns="http://www.w3.org/2000/svg" xmlns:xlink="http://www.w3.org/1999/xlink">
<g id="graph0" class="graph" transform="scale(1 1) rotate(0) translate(4 100.19)">
<title>G</title>
<polygon fill="white" stroke="none" points="-4,4 -4,-100.19 134.01,-100.19 134.01,4 -4,4"/>
<!-- 21 -->
<g id="node1" class="node">
<title>21</title>
<ellipse fill="lightgrey" stroke="black" cx="19.63" cy="-42.44" rx="19.63" ry="19.63"/>
<text text-anchor="middle" x="19.63" y="-37.02" font-family="Times New Roman,serif" font-size="14.00">21</text>
</g>
<!-- 22 -->
<g id="node2" class="node">
<title>22</title>
<ellipse fill="none" stroke="black" cx="106.38" cy="-42.44" rx="19.63" ry="19.63"/>
<ellipse fill="none" stroke="black" cx="106.38" cy="-42.44" rx="23.63" ry="23.63"/>
<text text-anchor="middle" x="106.38" y="-37.02" font-family="Times New Roman,serif" font-size="14.00">22</text>
</g>
<!-- 21&#45;&gt;22 -->
<g id="edge1" class="edge">
<title>21&#45;&gt;22</title>
<path fill="none" stroke="black" d="M30.19,-59.49C38.36,-71.58 50.96,-84.78 64.75,-79.44 71.29,-76.91 77.43,-72.78 82.85,-68.18"/>
<polygon fill="black" stroke="black" points="84.87,-71.14 89.74,-61.73 80.06,-66.05 84.87,-71.14"/>
<text text-anchor="middle" x="61" y="-82.89" font-family="Times New Roman,serif" font-size="14.00">a</text>
</g>
<!-- 21&#45;&gt;22 -->
<g id="edge2" class="edge">
<title>21&#45;&gt;22</title>
<path fill="none" stroke="black" d="M39.44,-42.44C48.85,-42.44 60.53,-42.44 71.44,-42.44"/>
<polygon fill="black" stroke="black" points="71.4,-45.94 81.4,-42.44 71.4,-38.94 71.4,-45.94"/>
<text text-anchor="middle" x="61" y="-44.89" font-family="Times New Roman,serif" font-size="14.00">b</text>
</g>
<!-- 21&#45;&gt;22 -->
<g id="edge3" class="edge">
<title>21&#45;&gt;22</title>
<path fill="none" stroke="black" d="M36.33,-31.77C42.56,-28.13 49.97,-24.53 57.25,-22.69 63.92,-21.01 70.88,-22.07 77.36,-24.4"/>
<polygon fill="black" stroke="black" points="75.51,-27.86 86.06,-28.88 78.45,-21.51 75.51,-27.86"/>
<text text-anchor="middle" x="61" y="-24.89" font-family="Times New Roman,serif" font-size="14.00">c</text>
</g>
<!-- 21&#45;&gt;22 -->
<g id="edge4" class="edge">
<title>21&#45;&gt;22</title>
<path fill="none" stroke="black" d="M29.15,-24.99C37.13,-11.33 50.02,4.43 64.75,-1.69 72.24,-4.8 79.06,-10.03 84.89,-15.72"/>
<polygon fill="black" stroke="black" points="81.83,-17.65 91.18,-22.62 86.97,-12.9 81.83,-17.65"/>
<text text-anchor="middle" x="61" y="-3.89" font-family="Times New Roman,serif" font-size="14.00">d</text>
</g>
</g>
</svg>
