<?xml version="1.0" encoding="UTF-8" standalone="no"?>
<!DOCTYPE svg PUBLIC "-//W3C//DTD SVG 1.1//EN"
 "http://www.w3.org/Graphics/SVG/1.1/DTD/svg11.dtd">
<!-- Generated by graphviz version 8.1.0 (20230707.0739)
 -->
<!-- Title: G Pages: 1 -->
<svg width="457pt" height="206pt"
 viewBox="0.00 0.00 456.52 206.00" xmlns="http://www.w3.org/2000/svg" xmlns:xlink="http://www.w3.org/1999/xlink">
<g id="graph0" class="graph" transform="scale(1 1) rotate(0) translate(4 202)">
<title>G</title>
<polygon fill="white" stroke="none" points="-4,4 -4,-202 452.52,-202 452.52,4 -4,4"/>
<!-- 12 -->
<g id="node1" class="node">
<title>12</title>
<ellipse fill="none" stroke="black" cx="19.63" cy="-97" rx="19.63" ry="19.63"/>
<text text-anchor="middle" x="19.63" y="-91.58" font-family="Times New Roman,serif" font-size="14.00">12</text>
</g>
<!-- 4 -->
<g id="node2" class="node">
<title>4</title>
<ellipse fill="none" stroke="black" cx="100.88" cy="-126" rx="18" ry="18"/>
<text text-anchor="middle" x="100.88" y="-120.58" font-family="Times New Roman,serif" font-size="14.00">4</text>
</g>
<!-- 12&#45;&gt;4 -->
<g id="edge1" class="edge">
<title>12&#45;&gt;4</title>
<path fill="none" stroke="black" d="M38.61,-103.58C48.86,-107.33 61.88,-112.1 73.29,-116.27"/>
<polygon fill="black" stroke="black" points="71.99,-119.89 82.59,-120.04 74.4,-113.31 71.99,-119.89"/>
<text text-anchor="middle" x="60.25" y="-115.45" font-family="Times New Roman,serif" font-size="14.00">ϵ</text>
</g>
<!-- 10 -->
<g id="node9" class="node">
<title>10</title>
<ellipse fill="none" stroke="black" cx="100.88" cy="-70" rx="19.63" ry="19.63"/>
<text text-anchor="middle" x="100.88" y="-64.58" font-family="Times New Roman,serif" font-size="14.00">10</text>
</g>
<!-- 12&#45;&gt;10 -->
<g id="edge9" class="edge">
<title>12&#45;&gt;10</title>
<path fill="none" stroke="black" d="M38.44,-90.08C44.39,-87.83 51.09,-85.36 57.25,-83.25 61.71,-81.72 66.45,-80.18 71.09,-78.7"/>
<polygon fill="black" stroke="black" points="72.04,-81.76 80.55,-75.44 69.96,-75.07 72.04,-81.76"/>
<text text-anchor="middle" x="60.25" y="-86.45" font-family="Times New Roman,serif" font-size="14.00">ϵ</text>
</g>
<!-- 0 -->
<g id="node3" class="node">
<title>0</title>
<ellipse fill="none" stroke="black" cx="180.51" cy="-180" rx="18" ry="18"/>
<text text-anchor="middle" x="180.51" y="-174.57" font-family="Times New Roman,serif" font-size="14.00">0</text>
</g>
<!-- 4&#45;&gt;0 -->
<g id="edge2" class="edge">
<title>4&#45;&gt;0</title>
<path fill="none" stroke="black" d="M116.12,-135.9C127.32,-143.7 143.16,-154.71 156.2,-163.79"/>
<polygon fill="black" stroke="black" points="153.89,-167.14 164.1,-169.98 157.89,-161.39 153.89,-167.14"/>
<text text-anchor="middle" x="141.51" y="-156.45" font-family="Times New Roman,serif" font-size="14.00">ϵ</text>
</g>
<!-- 2 -->
<g id="node7" class="node">
<title>2</title>
<ellipse fill="none" stroke="black" cx="180.51" cy="-126" rx="18" ry="18"/>
<text text-anchor="middle" x="180.51" y="-120.58" font-family="Times New Roman,serif" font-size="14.00">2</text>
</g>
<!-- 4&#45;&gt;2 -->
<g id="edge6" class="edge">
<title>4&#45;&gt;2</title>
<path fill="none" stroke="black" d="M119.11,-126C128.59,-126 140.59,-126 151.39,-126"/>
<polygon fill="black" stroke="black" points="151.06,-129.5 161.06,-126 151.06,-122.5 151.06,-129.5"/>
<text text-anchor="middle" x="141.51" y="-128.45" font-family="Times New Roman,serif" font-size="14.00">ϵ</text>
</g>
<!-- 1 -->
<g id="node4" class="node">
<title>1</title>
<ellipse fill="none" stroke="black" cx="260.01" cy="-180" rx="18" ry="18"/>
<text text-anchor="middle" x="260.01" y="-174.57" font-family="Times New Roman,serif" font-size="14.00">1</text>
</g>
<!-- 0&#45;&gt;1 -->
<g id="edge3" class="edge">
<title>0&#45;&gt;1</title>
<path fill="none" stroke="black" d="M198.71,-180C208.07,-180 219.9,-180 230.6,-180"/>
<polygon fill="black" stroke="black" points="230.59,-183.5 240.59,-180 230.59,-176.5 230.59,-183.5"/>
<text text-anchor="middle" x="220.26" y="-182.45" font-family="Times New Roman,serif" font-size="14.00">a</text>
</g>
<!-- 5 -->
<g id="node5" class="node">
<title>5</title>
<ellipse fill="none" stroke="black" cx="339.64" cy="-126" rx="18" ry="18"/>
<text text-anchor="middle" x="339.64" y="-120.58" font-family="Times New Roman,serif" font-size="14.00">5</text>
</g>
<!-- 1&#45;&gt;5 -->
<g id="edge4" class="edge">
<title>1&#45;&gt;5</title>
<path fill="none" stroke="black" d="M275.25,-170.1C286.45,-162.3 302.29,-151.29 315.33,-142.21"/>
<polygon fill="black" stroke="black" points="317.01,-144.61 323.23,-136.02 313.02,-138.86 317.01,-144.61"/>
<text text-anchor="middle" x="299.01" y="-156.45" font-family="Times New Roman,serif" font-size="14.00">ϵ</text>
</g>
<!-- 13 -->
<g id="node6" class="node">
<title>13</title>
<ellipse fill="none" stroke="black" cx="424.89" cy="-97" rx="19.63" ry="19.63"/>
<ellipse fill="none" stroke="black" cx="424.89" cy="-97" rx="23.63" ry="23.63"/>
<text text-anchor="middle" x="424.89" y="-91.58" font-family="Times New Roman,serif" font-size="14.00">13</text>
</g>
<!-- 5&#45;&gt;13 -->
<g id="edge5" class="edge">
<title>5&#45;&gt;13</title>
<path fill="none" stroke="black" d="M357.08,-120.27C367.05,-116.8 380.11,-112.25 392.03,-108.1"/>
<polygon fill="black" stroke="black" points="392.82,-111.18 401.11,-104.59 390.52,-104.57 392.82,-111.18"/>
<text text-anchor="middle" x="380.26" y="-116.45" font-family="Times New Roman,serif" font-size="14.00">ϵ</text>
</g>
<!-- 3 -->
<g id="node8" class="node">
<title>3</title>
<ellipse fill="none" stroke="black" cx="260.01" cy="-126" rx="18" ry="18"/>
<text text-anchor="middle" x="260.01" y="-120.58" font-family="Times New Roman,serif" font-size="14.00">3</text>
</g>
<!-- 2&#45;&gt;3 -->
<g id="edge7" class="edge">
<title>2&#45;&gt;3</title>
<path fill="none" stroke="black" d="M198.71,-126C208.07,-126 219.9,-126 230.6,-126"/>
<polygon fill="black" stroke="black" points="230.59,-129.5 240.59,-126 230.59,-122.5 230.59,-129.5"/>
<text text-anchor="middle" x="220.26" y="-128.45" font-family="Times New Roman,serif" font-size="14.00">b</text>
</g>
<!-- 3&#45;&gt;5 -->
<g id="edge8" class="edge">
<title>3&#45;&gt;5</title>
<path fill="none" stroke="black" d="M278.24,-126C287.72,-126 299.72,-126 310.52,-126"/>
<polygon fill="black" stroke="black" points="310.19,-129.5 320.19,-126 310.19,-122.5 310.19,-129.5"/>
<text text-anchor="middle" x="299.01" y="-128.45" font-family="Times New Roman,serif" font-size="14.00">ϵ</text>
</g>
<!-- 6 -->
<g id="node10" class="node">
<title>6</title>
<ellipse fill="none" stroke="black" cx="180.51" cy="-72" rx="18" ry="18"/>
<text text-anchor="middle" x="180.51" y="-66.58" font-family="Times New Roman,serif" font-size="14.00">6</text>
</g>
<!-- 10&#45;&gt;6 -->
<g id="edge10" class="edge">
<title>10&#45;&gt;6</title>
<path fill="none" stroke="black" d="M120.67,-70.48C129.87,-70.72 141.12,-71.01 151.32,-71.27"/>
<polygon fill="black" stroke="black" points="151.13,-74.8 161.22,-71.55 151.31,-67.8 151.13,-74.8"/>
<text text-anchor="middle" x="141.51" y="-74.45" font-family="Times New Roman,serif" font-size="14.00">ϵ</text>
</g>
<!-- 8 -->
<g id="node13" class="node">
<title>8</title>
<ellipse fill="none" stroke="black" cx="180.51" cy="-18" rx="18" ry="18"/>
<text text-anchor="middle" x="180.51" y="-12.57" font-family="Times New Roman,serif" font-size="14.00">8</text>
</g>
<!-- 10&#45;&gt;8 -->
<g id="edge14" class="edge">
<title>10&#45;&gt;8</title>
<path fill="none" stroke="black" d="M117.59,-59.48C128.61,-52.1 143.52,-42.11 155.96,-33.78"/>
<polygon fill="black" stroke="black" points="157.51,-36.28 163.87,-27.8 153.62,-30.46 157.51,-36.28"/>
<text text-anchor="middle" x="141.51" y="-46.45" font-family="Times New Roman,serif" font-size="14.00">ϵ</text>
</g>
<!-- 7 -->
<g id="node11" class="node">
<title>7</title>
<ellipse fill="none" stroke="black" cx="260.01" cy="-72" rx="18" ry="18"/>
<text text-anchor="middle" x="260.01" y="-66.58" font-family="Times New Roman,serif" font-size="14.00">7</text>
</g>
<!-- 6&#45;&gt;7 -->
<g id="edge11" class="edge">
<title>6&#45;&gt;7</title>
<path fill="none" stroke="black" d="M198.71,-72C208.07,-72 219.9,-72 230.6,-72"/>
<polygon fill="black" stroke="black" points="230.59,-75.5 240.59,-72 230.59,-68.5 230.59,-75.5"/>
<text text-anchor="middle" x="220.26" y="-74.45" font-family="Times New Roman,serif" font-size="14.00">c</text>
</g>
<!-- 11 -->
<g id="node12" class="node">
<title>11</title>
<ellipse fill="none" stroke="black" cx="339.64" cy="-70" rx="19.63" ry="19.63"/>
<text text-anchor="middle" x="339.64" y="-64.58" font-family="Times New Roman,serif" font-size="14.00">11</text>
</g>
<!-- 7&#45;&gt;11 -->
<g id="edge12" class="edge">
<title>7&#45;&gt;11</title>
<path fill="none" stroke="black" d="M278.24,-71.56C287.22,-71.32 298.48,-71.03 308.83,-70.77"/>
<polygon fill="black" stroke="black" points="308.64,-74.25 318.55,-70.49 308.46,-67.25 308.64,-74.25"/>
<text text-anchor="middle" x="299.01" y="-74.45" font-family="Times New Roman,serif" font-size="14.00">ϵ</text>
</g>
<!-- 11&#45;&gt;13 -->
<g id="edge13" class="edge">
<title>11&#45;&gt;13</title>
<path fill="none" stroke="black" d="M358.92,-75.57C366.47,-77.9 375.3,-80.67 383.26,-83.25 386.02,-84.15 388.88,-85.09 391.75,-86.04"/>
<polygon fill="black" stroke="black" points="390.4,-89.61 401,-89.48 392.63,-82.98 390.4,-89.61"/>
<text text-anchor="middle" x="380.26" y="-86.45" font-family="Times New Roman,serif" font-size="14.00">ϵ</text>
</g>
<!-- 9 -->
<g id="node14" class="node">
<title>9</title>
<ellipse fill="none" stroke="black" cx="260.01" cy="-18" rx="18" ry="18"/>
<text text-anchor="middle" x="260.01" y="-12.57" font-family="Times New Roman,serif" font-size="14.00">9</text>
</g>
<!-- 8&#45;&gt;9 -->
<g id="edge15" class="edge">
<title>8&#45;&gt;9</title>
<path fill="none" stroke="black" d="M198.71,-18C208.07,-18 219.9,-18 230.6,-18"/>
<polygon fill="black" stroke="black" points="230.59,-21.5 240.59,-18 230.59,-14.5 230.59,-21.5"/>
<text text-anchor="middle" x="220.26" y="-20.45" font-family="Times New Roman,serif" font-size="14.00">d</text>
</g>
<!-- 9&#45;&gt;11 -->
<g id="edge16" class="edge">
<title>9&#45;&gt;11</title>
<path fill="none" stroke="black" d="M275.61,-27.78C286.32,-34.95 301.12,-44.87 313.69,-53.29"/>
<polygon fill="black" stroke="black" points="311.51,-56.71 321.76,-59.37 315.4,-50.89 311.51,-56.71"/>
<text text-anchor="middle" x="299.01" y="-46.45" font-family="Times New Roman,serif" font-size="14.00">ϵ</text>
</g>
</g>
</svg>
